<svg width="145" height="185" viewBox="0 0 145 185" fill="none" xmlns="http://www.w3.org/2000/svg">
<rect y="44" width="145" height="118" rx="30" fill="#74A3FD"/>
<path d="M105.704 71.712C106.387 73.0773 106.301 74.016 105.448 74.528C104.68 75.04 103.869 75.3813 103.016 75.552C100.285 75.9787 97.3413 76.2347 94.184 76.32C91.0267 76.32 87.8693 76.2773 84.712 76.192C81.2987 76.1067 77.928 76.1067 74.6 76.192C71.3573 76.192 68.2853 76.448 65.384 76.96C63.4213 81.1413 61.672 85.7067 60.136 90.656C58.6853 95.6053 57.192 100.768 55.656 106.144C54.888 108.789 53.9067 112.032 52.712 115.872C51.6027 119.712 50.5787 123.552 49.64 127.392C48.7867 131.232 48.3173 134.56 48.232 137.376C48.232 137.717 48.4027 138.187 48.744 138.784C49.0853 139.296 49.384 139.765 49.64 140.192C52.6267 140.021 55.272 139.125 57.576 137.504C59.88 135.883 62.0987 134.304 64.232 132.768C65.5973 134.475 65.8107 136.096 64.872 137.632C63.9333 139.083 62.7813 140.491 61.416 141.856C60.8187 142.453 60.2213 143.093 59.624 143.776C59.0267 144.373 58.6 145.013 58.344 145.696C57.9173 145.781 57.4907 145.909 57.064 146.08C56.6373 146.251 56.2107 146.464 55.784 146.72C54.9307 147.061 53.9493 147.445 52.84 147.872C51.816 148.213 50.536 148.299 49 148.128C46.8667 147.872 44.8613 147.019 42.984 145.568C41.192 144.117 39.5707 143.008 38.12 142.24C38.7173 141.813 38.9307 141.344 38.76 140.832C38.6747 140.235 38.9307 139.765 39.528 139.424C39.528 135.499 39.8267 131.403 40.424 127.136C41.1067 122.869 41.9173 118.645 42.856 114.464C43.7947 110.283 44.6907 106.443 45.544 102.944C46.7387 98.4213 47.848 93.984 48.872 89.632C49.9813 85.28 50.8347 80.928 51.432 76.576C48.0187 76.32 44.5627 76.2347 41.064 76.32C37.6507 76.32 34.28 76.3627 30.952 76.448C26.344 76.6187 21.864 76.704 17.512 76.704C13.2453 76.6187 9.36267 76.1493 5.864 75.296C6.12 74.9547 6.12 74.656 5.864 74.4C5.608 74.144 5.352 73.9307 5.096 73.76C4.84 73.504 4.62667 73.2907 4.456 73.12C4.37067 72.9493 4.62667 72.736 5.224 72.48C7.86933 71.1147 11.0267 69.9627 14.696 69.024C18.4507 68 22.376 67.232 26.472 66.72C30.568 66.1227 34.5787 65.7387 38.504 65.568C42.4293 65.312 45.928 65.2693 49 65.44C49.5973 65.44 50.28 65.44 51.048 65.44C51.816 65.44 52.6267 65.44 53.48 65.44C55.272 65.3547 57.1067 65.3547 58.984 65.44C60.8613 65.44 62.184 65.696 62.952 66.208C65.4267 65.6107 68.328 65.312 71.656 65.312C74.984 65.2267 78.4827 65.312 82.152 65.568C85.9067 65.824 89.4907 66.208 92.904 66.72C96.4027 67.232 99.5173 67.744 102.248 68.256C102.931 68.8533 103.315 69.5787 103.4 70.432C103.485 71.2 104.253 71.6267 105.704 71.712Z" fill="#FCF08A"/>
<path d="M77.232 100.312V89.416H75.36C74.992 89.416 74.808 89.664 74.808 90.16V91.288L72.36 91.12V87.04H84.912V91.12L82.464 91.288V90.16C82.464 89.888 82.424 89.696 82.344 89.584C82.264 89.472 82.072 89.416 81.768 89.416H80.136V100.888L82.032 100.96V103H75.264V101.056L76.536 100.984C77 100.936 77.232 100.712 77.232 100.312ZM96.8336 91.408V100.336C96.8336 100.592 96.8736 100.768 96.9536 100.864C97.0496 100.96 97.2096 101.016 97.4336 101.032L98.2016 101.08V103H94.3856V101.608L94.3136 101.584C93.5136 102.736 92.4176 103.312 91.0256 103.312C89.3936 103.312 88.1856 102.792 87.4016 101.752C86.6176 100.712 86.2256 99.288 86.2256 97.48C86.2256 95.304 86.7536 93.608 87.8096 92.392C88.8656 91.176 90.4496 90.568 92.5616 90.568C93.9216 90.568 95.3456 90.848 96.8336 91.408ZM94.0496 99.184V92.968C93.6016 92.76 92.9856 92.656 92.2016 92.656C91.1296 92.656 90.3536 93.088 89.8736 93.952C89.3936 94.816 89.1536 95.96 89.1536 97.384C89.1536 99.976 89.9856 101.272 91.6496 101.272C92.3536 101.272 92.9296 101.064 93.3776 100.648C93.8256 100.216 94.0496 99.728 94.0496 99.184ZM103.971 85.888V101.008L105.339 101.08V103H99.6268V101.176L100.419 101.104C100.883 101.056 101.115 100.8 101.115 100.336V88.504C101.115 88.152 100.915 87.96 100.515 87.928L99.6748 87.88V85.888H103.971ZM108.311 100.312V88.624C108.311 88.368 108.263 88.192 108.167 88.096C108.087 88 107.935 87.944 107.711 87.928L106.871 87.88V85.888H111.143V96.28C112.023 96.2 112.791 95.928 113.447 95.464C114.103 95 114.551 94.392 114.791 93.64C114.839 93.48 114.863 93.352 114.863 93.256C114.863 92.984 114.711 92.848 114.407 92.848L113.495 92.8V90.928H118.463V92.872L117.311 92.92C117.103 94.552 116.399 95.84 115.199 96.784L117.551 101.008L119.015 101.08V103H115.511L112.775 98.008C112.247 98.152 111.703 98.264 111.143 98.344V101.008H111.167L112.535 101.08V103H106.823V101.176L107.615 101.104C107.855 101.072 108.031 101.008 108.143 100.912C108.255 100.8 108.311 100.6 108.311 100.312ZM84.216 136H72.816V134.056L73.608 133.984C74.072 133.936 74.304 133.712 74.304 133.312V122.152L72.936 122.08V120.04H83.928V124.024L81.48 124.192V123.232C81.48 122.96 81.44 122.768 81.36 122.656C81.28 122.544 81.088 122.488 80.784 122.488H77.232V126.592H82.776V129.04H77.232V133.528H81.096C81.384 133.528 81.568 133.472 81.648 133.36C81.728 133.232 81.768 133.032 81.768 132.76V131.56L84.216 131.728V136ZM96.7399 124.408V133.336C96.7399 133.592 96.7799 133.768 96.8599 133.864C96.9559 133.96 97.1159 134.016 97.3399 134.032L98.1079 134.08V136H94.2919V134.608L94.2199 134.584C93.4199 135.736 92.3239 136.312 90.9319 136.312C89.2999 136.312 88.0919 135.792 87.3079 134.752C86.5239 133.712 86.1319 132.288 86.1319 130.48C86.1319 128.304 86.6599 126.608 87.7159 125.392C88.7719 124.176 90.3559 123.568 92.4679 123.568C93.8279 123.568 95.2519 123.848 96.7399 124.408ZM93.9559 132.184V125.968C93.5079 125.76 92.8919 125.656 92.1079 125.656C91.0359 125.656 90.2599 126.088 89.7799 126.952C89.2999 127.816 89.0599 128.96 89.0599 130.384C89.0599 132.976 89.8919 134.272 91.5559 134.272C92.2599 134.272 92.8359 134.064 93.2839 133.648C93.7319 133.216 93.9559 132.728 93.9559 132.184ZM105.869 125.752C105.485 125.608 105.021 125.536 104.477 125.536C103.933 125.536 103.493 125.664 103.157 125.92C102.837 126.16 102.677 126.464 102.677 126.832C102.677 127.184 102.733 127.464 102.845 127.672C102.973 127.864 103.165 128.032 103.421 128.176C103.821 128.384 104.301 128.568 104.861 128.728C105.421 128.872 105.837 128.992 106.109 129.088C106.381 129.168 106.717 129.312 107.117 129.52C107.533 129.728 107.845 129.952 108.053 130.192C108.613 130.784 108.893 131.544 108.893 132.472C108.893 133.672 108.453 134.616 107.573 135.304C106.709 135.976 105.605 136.312 104.261 136.312C102.309 136.312 100.837 136.064 99.8451 135.568V132.232L102.005 132.064V133.216C102.005 133.92 102.677 134.272 104.021 134.272C105.365 134.272 106.037 133.784 106.037 132.808C106.037 132.456 105.917 132.168 105.677 131.944C105.453 131.72 105.229 131.568 105.005 131.488C104.781 131.408 104.509 131.328 104.189 131.248C103.885 131.168 103.581 131.088 103.277 131.008C102.989 130.928 102.669 130.824 102.317 130.696C101.981 130.552 101.605 130.352 101.189 130.096C100.373 129.568 99.9651 128.688 99.9651 127.456C99.9651 126.208 100.405 125.248 101.285 124.576C102.165 123.904 103.269 123.568 104.597 123.568C105.941 123.568 107.269 123.888 108.581 124.528V127.408L106.421 127.576V126.568C106.421 126.168 106.237 125.896 105.869 125.752ZM116.433 123.568C117.633 123.568 118.585 123.864 119.289 124.456C119.993 125.032 120.345 125.848 120.345 126.904C120.345 127.608 120.193 128.232 119.889 128.776C119.585 129.304 119.209 129.72 118.761 130.024C118.313 130.328 117.769 130.576 117.129 130.768C116.057 131.088 114.849 131.248 113.505 131.248C113.553 132.096 113.817 132.784 114.297 133.312C114.777 133.824 115.513 134.08 116.505 134.08C117.497 134.08 118.489 133.728 119.481 133.024L120.393 134.968C120.073 135.256 119.529 135.552 118.761 135.856C118.009 136.16 117.145 136.312 116.169 136.312C114.217 136.312 112.785 135.776 111.873 134.704C110.961 133.616 110.505 132.128 110.505 130.24C110.505 128.352 111.025 126.768 112.065 125.488C113.105 124.208 114.561 123.568 116.433 123.568ZM115.329 129.064C115.921 128.952 116.465 128.72 116.961 128.368C117.457 128 117.705 127.568 117.705 127.072C117.705 126.096 117.225 125.608 116.265 125.608C115.369 125.608 114.681 125.968 114.201 126.688C113.721 127.392 113.457 128.24 113.409 129.232C114.113 129.216 114.753 129.16 115.329 129.064Z" fill="white"/>
</svg>
